<svg xmlns="http://www.w3.org/2000/svg" width="87" height="87">
  <path fill="#ec7963" fill-rule="evenodd" stroke="#ec7963" stroke-width="1.8" d="M79.618 7.712l-.33-.33c-7.703-7.703-20.308-7.703-28.011 0L33.43 25.23c-7.703 7.702-7.703 20.308 0 28.01l.33.33c.64.642 1.32 1.22 2.023 1.756l6.534-6.534a10.693 10.693 0 01-2.137-1.642l-.33-.33c-4.183-4.182-4.183-10.988 0-15.17l17.848-17.848c4.183-4.183 10.988-4.183 15.17 0l.33.33c4.182 4.182 4.182 10.988 0 15.17l-8.074 8.074A27.699 27.699 0 0167.13 48.21l12.49-12.487c7.702-7.703 7.702-20.308 0-28.01h0zM53.241 33.43a19.646 19.646 0 00-2.024-1.755l-6.534 6.533c.761.45 1.483.988 2.137 1.642l.33.33c4.184 4.183 4.184 10.987 0 15.17L29.303 73.2c-4.183 4.18-10.988 4.18-15.17 0l-.33-.331c-4.182-4.183-4.182-10.988 0-15.17l8.075-8.075a27.699 27.699 0 01-2.008-10.833L7.382 51.277c-7.703 7.703-7.703 20.308 0 28.012l.329.33c7.704 7.702 20.309 7.702 28.012 0L53.57 61.77c7.703-7.703 7.703-20.31 0-28.012l-.33-.33h0z"/>
</svg>
