<svg width="152" height="178" xmlns="http://www.w3.org/2000/svg">
  <g fill="none" fill-rule="evenodd">
    <path fill="#FFF" d="M16.61 115.9l59.614 42.098 59.65-42.1V16.027H16.612z"/>
    <path d="M76.224 177.704L.877 123.087V.296h150.731v122.79l-75.384 54.618zM16.61 115.901l59.613 42.097 59.65-42.1V16.027H16.612V115.9z" fill="#262626"/>
    <path fill="#CCC" d="M76.224 26.192h49.488v84.438l-49.488 34.921z"/>
    <g fill="#EC7963" stroke="#EC7963" stroke-width="1.8">
      <path d="M112.618 40.712l-.33-.33c-7.703-7.703-20.308-7.703-28.011 0L66.43 58.23c-7.703 7.702-7.703 20.308 0 28.01l.33.33c.64.642 1.32 1.22 2.023 1.756l6.534-6.534a10.693 10.693 0 01-2.137-1.642l-.33-.33c-4.183-4.182-4.183-10.988 0-15.17l17.848-17.848c4.183-4.183 10.988-4.183 15.17 0l.33.33c4.182 4.182 4.182 10.988 0 15.17l-8.074 8.074a27.699 27.699 0 012.007 10.833l12.488-12.487c7.702-7.703 7.702-20.308 0-28.01h0zM86.241 66.43a19.646 19.646 0 00-2.024-1.755l-6.534 6.533c.761.45 1.483.988 2.137 1.642l.33.33c4.184 4.183 4.184 10.987 0 15.17L62.303 106.2c-4.183 4.18-10.988 4.18-15.17 0l-.33-.331c-4.182-4.183-4.182-10.988 0-15.17l8.075-8.075a27.699 27.699 0 01-2.008-10.833L40.382 84.277c-7.703 7.703-7.703 20.308 0 28.012l.329.33c7.704 7.702 20.309 7.702 28.012 0L86.57 94.77c7.703-7.703 7.703-20.31 0-28.012l-.33-.33h0z"/>
    </g>
  </g>
</svg>
