<svg xmlns="http://www.w3.org/2000/svg" width="24" height="12" viewBox="0 0 24 12"><path fill="#ff5231" fill-rule="evenodd" d="M18 0h-3.234c1.125.75 2.18 2.086 2.507 3h.704c1.523 0 3 1.5 3 3s-1.524 3-3 3h-4.5c-1.477 0-3-1.5-3-3 0-.54.164-1.055.421-1.5h-3.21A6.413 6.413 0 007.5 6c0 3 2.977 6 5.977 6H18c3 0 6-3 6-6s-3-6-6-6zM6.727 9h-.704c-1.523 0-3-1.5-3-3s1.524-3 3-3h4.5c1.477 0 3 1.5 3 3a3.01 3.01 0 01-.421 1.5h3.21c.118-.492.188-.984.188-1.5 0-3-2.977-6-5.977-6H6C3 0 0 3 0 6s3 6 6 6h3.234c-1.125-.75-2.18-2.086-2.507-3z"/></svg>