<svg xmlns="http://www.w3.org/2000/svg" width="24" height="24" viewBox="0 0 24 24"><path fill="#ff5231" fill-rule="evenodd" d="M23.555 6.223L17.777.445a1.362 1.362 0 00-1.925 0l-5.777 5.778a1.361 1.361 0 000 1.926l.962.962 5.777-5.777 3.852 3.852-5.777 5.777.963.964a1.362 1.362 0 001.925 0l5.778-5.778a1.364 1.364 0 000-1.926zm-10.592 8.666l-5.777 5.777-3.852-3.852 5.777-5.777-.963-.964a1.362 1.362 0 00-1.925 0L.445 15.851a1.364 1.364 0 000 1.926l5.778 5.778a1.362 1.362 0 001.925 0l5.777-5.778a1.361 1.361 0 000-1.926l-.962-.962zm-4.815.962a1.361 1.361 0 001.927 0l5.777-5.778a1.36 1.36 0 10-1.927-1.924l-5.777 5.778a1.36 1.36 0 000 1.924z"/></svg>